<svg xmlns="http://www.w3.org/2000/svg" width="280mm" height="110mm" viewBox="0 0 1120 440" role="img" aria-labelledby="title"><title id="title">VI.P. ACCESS quiet office interior</title><rect x="0" y="0" width="1120" height="440" rx="0" fill="#f5efdf"/><g opacity="0.14"><path d="M12 0V440" fill="none" stroke="#3e6057" stroke-width="1" stroke-linejoin="round"/><path d="M28 0V440" fill="none" stroke="#3e6057" stroke-width="1" stroke-linejoin="round"/><path d="M44 0V440" fill="none" stroke="#3e6057" stroke-width="1" stroke-linejoin="round"/><path d="M60 0V440" fill="none" stroke="#3e6057" stroke-width="1" stroke-linejoin="round"/><path d="M76 0V440" fill="none" stroke="#3e6057" stroke-width="1" stroke-linejoin="round"/><path d="M92 0V440" fill="none" stroke="#3e6057" stroke-width="1" stroke-linejoin="round"/><path d="M108 0V440" fill="none" stroke="#3e6057" stroke-width="1" stroke-linejoin="round"/><path d="M124 0V440" fill="none" stroke="#3e6057" stroke-width="1" stroke-linejoin="round"/><path d="M140 0V440" fill="none" stroke="#3e6057" stroke-width="1" stroke-linejoin="round"/><path d="M156 0V440" fill="none" stroke="#3e6057" stroke-width="1" stroke-linejoin="round"/><path d="M172 0V440" fill="none" stroke="#3e6057" stroke-width="1" stroke-linejoin="round"/><path d="M188 0V440" fill="none" stroke="#3e6057" stroke-width="1" stroke-linejoin="round"/><path d="M204 0V440" fill="none" stroke="#3e6057" stroke-width="1" stroke-linejoin="round"/><path d="M220 0V440" fill="none" stroke="#3e6057" stroke-width="1" stroke-linejoin="round"/><path d="M236 0V440" fill="none" stroke="#3e6057" stroke-width="1" stroke-linejoin="round"/><path d="M252 0V440" fill="none" stroke="#3e6057" stroke-width="1" stroke-linejoin="round"/><path d="M268 0V440" fill="none" stroke="#3e6057" stroke-width="1" stroke-linejoin="round"/><path d="M284 0V440" fill="none" stroke="#3e6057" stroke-width="1" stroke-linejoin="round"/><path d="M300 0V440" fill="none" stroke="#3e6057" stroke-width="1" stroke-linejoin="round"/><path d="M316 0V440" fill="none" stroke="#3e6057" stroke-width="1" stroke-linejoin="round"/><path d="M332 0V440" fill="none" stroke="#3e6057" stroke-width="1" stroke-linejoin="round"/><path d="M348 0V440" fill="none" stroke="#3e6057" stroke-width="1" stroke-linejoin="round"/><path d="M364 0V440" fill="none" stroke="#3e6057" stroke-width="1" stroke-linejoin="round"/><path d="M380 0V440" fill="none" stroke="#3e6057" stroke-width="1" stroke-linejoin="round"/><path d="M396 0V440" fill="none" stroke="#3e6057" stroke-width="1" stroke-linejoin="round"/><path d="M412 0V440" fill="none" stroke="#3e6057" stroke-width="1" stroke-linejoin="round"/><path d="M428 0V440" fill="none" stroke="#3e6057" stroke-width="1" stroke-linejoin="round"/><path d="M444 0V440" fill="none" stroke="#3e6057" stroke-width="1" stroke-linejoin="round"/><path d="M460 0V440" fill="none" stroke="#3e6057" stroke-width="1" stroke-linejoin="round"/><path d="M476 0V440" fill="none" stroke="#3e6057" stroke-width="1" stroke-linejoin="round"/><path d="M492 0V440" fill="none" stroke="#3e6057" stroke-width="1" stroke-linejoin="round"/><path d="M508 0V440" fill="none" stroke="#3e6057" stroke-width="1" stroke-linejoin="round"/><path d="M524 0V440" fill="none" stroke="#3e6057" stroke-width="1" stroke-linejoin="round"/><path d="M540 0V440" fill="none" stroke="#3e6057" stroke-width="1" stroke-linejoin="round"/><path d="M556 0V440" fill="none" stroke="#3e6057" stroke-width="1" stroke-linejoin="round"/><path d="M572 0V440" fill="none" stroke="#3e6057" stroke-width="1" stroke-linejoin="round"/><path d="M588 0V440" fill="none" stroke="#3e6057" stroke-width="1" stroke-linejoin="round"/><path d="M604 0V440" fill="none" stroke="#3e6057" stroke-width="1" stroke-linejoin="round"/><path d="M620 0V440" fill="none" stroke="#3e6057" stroke-width="1" stroke-linejoin="round"/><path d="M636 0V440" fill="none" stroke="#3e6057" stroke-width="1" stroke-linejoin="round"/><path d="M652 0V440" fill="none" stroke="#3e6057" stroke-width="1" stroke-linejoin="round"/><path d="M668 0V440" fill="none" stroke="#3e6057" stroke-width="1" stroke-linejoin="round"/><path d="M684 0V440" fill="none" stroke="#3e6057" stroke-width="1" stroke-linejoin="round"/><path d="M700 0V440" fill="none" stroke="#3e6057" stroke-width="1" stroke-linejoin="round"/><path d="M716 0V440" fill="none" stroke="#3e6057" stroke-width="1" stroke-linejoin="round"/><path d="M732 0V440" fill="none" stroke="#3e6057" stroke-width="1" stroke-linejoin="round"/><path d="M748 0V440" fill="none" stroke="#3e6057" stroke-width="1" stroke-linejoin="round"/><path d="M764 0V440" fill="none" stroke="#3e6057" stroke-width="1" stroke-linejoin="round"/><path d="M780 0V440" fill="none" stroke="#3e6057" stroke-width="1" stroke-linejoin="round"/><path d="M796 0V440" fill="none" stroke="#3e6057" stroke-width="1" stroke-linejoin="round"/><path d="M812 0V440" fill="none" stroke="#3e6057" stroke-width="1" stroke-linejoin="round"/><path d="M828 0V440" fill="none" stroke="#3e6057" stroke-width="1" stroke-linejoin="round"/><path d="M844 0V440" fill="none" stroke="#3e6057" stroke-width="1" stroke-linejoin="round"/><path d="M860 0V440" fill="none" stroke="#3e6057" stroke-width="1" stroke-linejoin="round"/><path d="M876 0V440" fill="none" stroke="#3e6057" stroke-width="1" stroke-linejoin="round"/><path d="M892 0V440" fill="none" stroke="#3e6057" stroke-width="1" stroke-linejoin="round"/><path d="M908 0V440" fill="none" stroke="#3e6057" stroke-width="1" stroke-linejoin="round"/><path d="M924 0V440" fill="none" stroke="#3e6057" stroke-width="1" stroke-linejoin="round"/><path d="M940 0V440" fill="none" stroke="#3e6057" stroke-width="1" stroke-linejoin="round"/><path d="M956 0V440" fill="none" stroke="#3e6057" stroke-width="1" stroke-linejoin="round"/><path d="M972 0V440" fill="none" stroke="#3e6057" stroke-width="1" stroke-linejoin="round"/><path d="M988 0V440" fill="none" stroke="#3e6057" stroke-width="1" stroke-linejoin="round"/><path d="M1004 0V440" fill="none" stroke="#3e6057" stroke-width="1" stroke-linejoin="round"/><path d="M1020 0V440" fill="none" stroke="#3e6057" stroke-width="1" stroke-linejoin="round"/><path d="M1036 0V440" fill="none" stroke="#3e6057" stroke-width="1" stroke-linejoin="round"/><path d="M1052 0V440" fill="none" stroke="#3e6057" stroke-width="1" stroke-linejoin="round"/><path d="M1068 0V440" fill="none" stroke="#3e6057" stroke-width="1" stroke-linejoin="round"/><path d="M1084 0V440" fill="none" stroke="#3e6057" stroke-width="1" stroke-linejoin="round"/><path d="M1100 0V440" fill="none" stroke="#3e6057" stroke-width="1" stroke-linejoin="round"/><path d="M1116 0V440" fill="none" stroke="#3e6057" stroke-width="1" stroke-linejoin="round"/></g><rect x="0" y="0" width="1120" height="12" rx="0" fill="#bfd8d0"/><rect x="0" y="424" width="1120" height="16" rx="0" fill="#bfd8d0"/><rect x="18" y="25" width="284" height="387" rx="0" fill="none" stroke="#bfd8d0" stroke-width="2"/><rect x="338" y="25" width="444" height="387" rx="0" fill="none" stroke="#bfd8d0" stroke-width="2"/><rect x="818" y="25" width="284" height="387" rx="0" fill="none" stroke="#bfd8d0" stroke-width="2"/><svg x="534" y="34" width="52" height="52" viewBox="0 0 64 64" fill="none" stroke="#3e6057" stroke-width="2.4" stroke-linecap="round" stroke-linejoin="round"><path d="M18 9h28v7l5 5v22l-5 5v7H18v-7l-5-5V21l5-5zM25 20v24M39 20v24M25 32h14M20 9h4M28 9h4M36 9h4M44 9h2"/></svg></svg>
