<svg xmlns="http://www.w3.org/2000/svg" width="280mm" height="110mm" viewBox="0 0 1120 440" role="img" aria-labelledby="title"><title id="title">IVy LEAGUE office exterior</title><rect x="0" y="0" width="1120" height="440" rx="0" fill="#cbd6bd"/><g opacity="0.2"><path d="M0 16H1120" fill="none" stroke="#4f6246" stroke-width="1" stroke-linejoin="round"/><path d="M0 16v32" fill="none" stroke="#4f6246" stroke-width="1" stroke-linejoin="round"/><path d="M80 16v32" fill="none" stroke="#4f6246" stroke-width="1" stroke-linejoin="round"/><path d="M160 16v32" fill="none" stroke="#4f6246" stroke-width="1" stroke-linejoin="round"/><path d="M240 16v32" fill="none" stroke="#4f6246" stroke-width="1" stroke-linejoin="round"/><path d="M320 16v32" fill="none" stroke="#4f6246" stroke-width="1" stroke-linejoin="round"/><path d="M400 16v32" fill="none" stroke="#4f6246" stroke-width="1" stroke-linejoin="round"/><path d="M480 16v32" fill="none" stroke="#4f6246" stroke-width="1" stroke-linejoin="round"/><path d="M560 16v32" fill="none" stroke="#4f6246" stroke-width="1" stroke-linejoin="round"/><path d="M640 16v32" fill="none" stroke="#4f6246" stroke-width="1" stroke-linejoin="round"/><path d="M720 16v32" fill="none" stroke="#4f6246" stroke-width="1" stroke-linejoin="round"/><path d="M800 16v32" fill="none" stroke="#4f6246" stroke-width="1" stroke-linejoin="round"/><path d="M880 16v32" fill="none" stroke="#4f6246" stroke-width="1" stroke-linejoin="round"/><path d="M960 16v32" fill="none" stroke="#4f6246" stroke-width="1" stroke-linejoin="round"/><path d="M1040 16v32" fill="none" stroke="#4f6246" stroke-width="1" stroke-linejoin="round"/><path d="M0 48H1120" fill="none" stroke="#4f6246" stroke-width="1" stroke-linejoin="round"/><path d="M40 48v32" fill="none" stroke="#4f6246" stroke-width="1" stroke-linejoin="round"/><path d="M120 48v32" fill="none" stroke="#4f6246" stroke-width="1" stroke-linejoin="round"/><path d="M200 48v32" fill="none" stroke="#4f6246" stroke-width="1" stroke-linejoin="round"/><path d="M280 48v32" fill="none" stroke="#4f6246" stroke-width="1" stroke-linejoin="round"/><path d="M360 48v32" fill="none" stroke="#4f6246" stroke-width="1" stroke-linejoin="round"/><path d="M440 48v32" fill="none" stroke="#4f6246" stroke-width="1" stroke-linejoin="round"/><path d="M520 48v32" fill="none" stroke="#4f6246" stroke-width="1" stroke-linejoin="round"/><path d="M600 48v32" fill="none" stroke="#4f6246" stroke-width="1" stroke-linejoin="round"/><path d="M680 48v32" fill="none" stroke="#4f6246" stroke-width="1" stroke-linejoin="round"/><path d="M760 48v32" fill="none" stroke="#4f6246" stroke-width="1" stroke-linejoin="round"/><path d="M840 48v32" fill="none" stroke="#4f6246" stroke-width="1" stroke-linejoin="round"/><path d="M920 48v32" fill="none" stroke="#4f6246" stroke-width="1" stroke-linejoin="round"/><path d="M1000 48v32" fill="none" stroke="#4f6246" stroke-width="1" stroke-linejoin="round"/><path d="M1080 48v32" fill="none" stroke="#4f6246" stroke-width="1" stroke-linejoin="round"/><path d="M0 80H1120" fill="none" stroke="#4f6246" stroke-width="1" stroke-linejoin="round"/><path d="M0 80v32" fill="none" stroke="#4f6246" stroke-width="1" stroke-linejoin="round"/><path d="M80 80v32" fill="none" stroke="#4f6246" stroke-width="1" stroke-linejoin="round"/><path d="M160 80v32" fill="none" stroke="#4f6246" stroke-width="1" stroke-linejoin="round"/><path d="M240 80v32" fill="none" stroke="#4f6246" stroke-width="1" stroke-linejoin="round"/><path d="M320 80v32" fill="none" stroke="#4f6246" stroke-width="1" stroke-linejoin="round"/><path d="M400 80v32" fill="none" stroke="#4f6246" stroke-width="1" stroke-linejoin="round"/><path d="M480 80v32" fill="none" stroke="#4f6246" stroke-width="1" stroke-linejoin="round"/><path d="M560 80v32" fill="none" stroke="#4f6246" stroke-width="1" stroke-linejoin="round"/><path d="M640 80v32" fill="none" stroke="#4f6246" stroke-width="1" stroke-linejoin="round"/><path d="M720 80v32" fill="none" stroke="#4f6246" stroke-width="1" stroke-linejoin="round"/><path d="M800 80v32" fill="none" stroke="#4f6246" stroke-width="1" stroke-linejoin="round"/><path d="M880 80v32" fill="none" stroke="#4f6246" stroke-width="1" stroke-linejoin="round"/><path d="M960 80v32" fill="none" stroke="#4f6246" stroke-width="1" stroke-linejoin="round"/><path d="M1040 80v32" fill="none" stroke="#4f6246" stroke-width="1" stroke-linejoin="round"/><path d="M0 112H1120" fill="none" stroke="#4f6246" stroke-width="1" stroke-linejoin="round"/><path d="M40 112v32" fill="none" stroke="#4f6246" stroke-width="1" stroke-linejoin="round"/><path d="M120 112v32" fill="none" stroke="#4f6246" stroke-width="1" stroke-linejoin="round"/><path d="M200 112v32" fill="none" stroke="#4f6246" stroke-width="1" stroke-linejoin="round"/><path d="M280 112v32" fill="none" stroke="#4f6246" stroke-width="1" stroke-linejoin="round"/><path d="M360 112v32" fill="none" stroke="#4f6246" stroke-width="1" stroke-linejoin="round"/><path d="M440 112v32" fill="none" stroke="#4f6246" stroke-width="1" stroke-linejoin="round"/><path d="M520 112v32" fill="none" stroke="#4f6246" stroke-width="1" stroke-linejoin="round"/><path d="M600 112v32" fill="none" stroke="#4f6246" stroke-width="1" stroke-linejoin="round"/><path d="M680 112v32" fill="none" stroke="#4f6246" stroke-width="1" stroke-linejoin="round"/><path d="M760 112v32" fill="none" stroke="#4f6246" stroke-width="1" stroke-linejoin="round"/><path d="M840 112v32" fill="none" stroke="#4f6246" stroke-width="1" stroke-linejoin="round"/><path d="M920 112v32" fill="none" stroke="#4f6246" stroke-width="1" stroke-linejoin="round"/><path d="M1000 112v32" fill="none" stroke="#4f6246" stroke-width="1" stroke-linejoin="round"/><path d="M1080 112v32" fill="none" stroke="#4f6246" stroke-width="1" stroke-linejoin="round"/><path d="M0 144H1120" fill="none" stroke="#4f6246" stroke-width="1" stroke-linejoin="round"/><path d="M0 144v32" fill="none" stroke="#4f6246" stroke-width="1" stroke-linejoin="round"/><path d="M80 144v32" fill="none" stroke="#4f6246" stroke-width="1" stroke-linejoin="round"/><path d="M160 144v32" fill="none" stroke="#4f6246" stroke-width="1" stroke-linejoin="round"/><path d="M240 144v32" fill="none" stroke="#4f6246" stroke-width="1" stroke-linejoin="round"/><path d="M320 144v32" fill="none" stroke="#4f6246" stroke-width="1" stroke-linejoin="round"/><path d="M400 144v32" fill="none" stroke="#4f6246" stroke-width="1" stroke-linejoin="round"/><path d="M480 144v32" fill="none" stroke="#4f6246" stroke-width="1" stroke-linejoin="round"/><path d="M560 144v32" fill="none" stroke="#4f6246" stroke-width="1" stroke-linejoin="round"/><path d="M640 144v32" fill="none" stroke="#4f6246" stroke-width="1" stroke-linejoin="round"/><path d="M720 144v32" fill="none" stroke="#4f6246" stroke-width="1" stroke-linejoin="round"/><path d="M800 144v32" fill="none" stroke="#4f6246" stroke-width="1" stroke-linejoin="round"/><path d="M880 144v32" fill="none" stroke="#4f6246" stroke-width="1" stroke-linejoin="round"/><path d="M960 144v32" fill="none" stroke="#4f6246" stroke-width="1" stroke-linejoin="round"/><path d="M1040 144v32" fill="none" stroke="#4f6246" stroke-width="1" stroke-linejoin="round"/><path d="M0 176H1120" fill="none" stroke="#4f6246" stroke-width="1" stroke-linejoin="round"/><path d="M40 176v32" fill="none" stroke="#4f6246" stroke-width="1" stroke-linejoin="round"/><path d="M120 176v32" fill="none" stroke="#4f6246" stroke-width="1" stroke-linejoin="round"/><path d="M200 176v32" fill="none" stroke="#4f6246" stroke-width="1" stroke-linejoin="round"/><path d="M280 176v32" fill="none" stroke="#4f6246" stroke-width="1" stroke-linejoin="round"/><path d="M360 176v32" fill="none" stroke="#4f6246" stroke-width="1" stroke-linejoin="round"/><path d="M440 176v32" fill="none" stroke="#4f6246" stroke-width="1" stroke-linejoin="round"/><path d="M520 176v32" fill="none" stroke="#4f6246" stroke-width="1" stroke-linejoin="round"/><path d="M600 176v32" fill="none" stroke="#4f6246" stroke-width="1" stroke-linejoin="round"/><path d="M680 176v32" fill="none" stroke="#4f6246" stroke-width="1" stroke-linejoin="round"/><path d="M760 176v32" fill="none" stroke="#4f6246" stroke-width="1" stroke-linejoin="round"/><path d="M840 176v32" fill="none" stroke="#4f6246" stroke-width="1" stroke-linejoin="round"/><path d="M920 176v32" fill="none" stroke="#4f6246" stroke-width="1" stroke-linejoin="round"/><path d="M1000 176v32" fill="none" stroke="#4f6246" stroke-width="1" stroke-linejoin="round"/><path d="M1080 176v32" fill="none" stroke="#4f6246" stroke-width="1" stroke-linejoin="round"/><path d="M0 208H1120" fill="none" stroke="#4f6246" stroke-width="1" stroke-linejoin="round"/><path d="M0 208v32" fill="none" stroke="#4f6246" stroke-width="1" stroke-linejoin="round"/><path d="M80 208v32" fill="none" stroke="#4f6246" stroke-width="1" stroke-linejoin="round"/><path d="M160 208v32" fill="none" stroke="#4f6246" stroke-width="1" stroke-linejoin="round"/><path d="M240 208v32" fill="none" stroke="#4f6246" stroke-width="1" stroke-linejoin="round"/><path d="M320 208v32" fill="none" stroke="#4f6246" stroke-width="1" stroke-linejoin="round"/><path d="M400 208v32" fill="none" stroke="#4f6246" stroke-width="1" stroke-linejoin="round"/><path d="M480 208v32" fill="none" stroke="#4f6246" stroke-width="1" stroke-linejoin="round"/><path d="M560 208v32" fill="none" stroke="#4f6246" stroke-width="1" stroke-linejoin="round"/><path d="M640 208v32" fill="none" stroke="#4f6246" stroke-width="1" stroke-linejoin="round"/><path d="M720 208v32" fill="none" stroke="#4f6246" stroke-width="1" stroke-linejoin="round"/><path d="M800 208v32" fill="none" stroke="#4f6246" stroke-width="1" stroke-linejoin="round"/><path d="M880 208v32" fill="none" stroke="#4f6246" stroke-width="1" stroke-linejoin="round"/><path d="M960 208v32" fill="none" stroke="#4f6246" stroke-width="1" stroke-linejoin="round"/><path d="M1040 208v32" fill="none" stroke="#4f6246" stroke-width="1" stroke-linejoin="round"/><path d="M0 240H1120" fill="none" stroke="#4f6246" stroke-width="1" stroke-linejoin="round"/><path d="M40 240v32" fill="none" stroke="#4f6246" stroke-width="1" stroke-linejoin="round"/><path d="M120 240v32" fill="none" stroke="#4f6246" stroke-width="1" stroke-linejoin="round"/><path d="M200 240v32" fill="none" stroke="#4f6246" stroke-width="1" stroke-linejoin="round"/><path d="M280 240v32" fill="none" stroke="#4f6246" stroke-width="1" stroke-linejoin="round"/><path d="M360 240v32" fill="none" stroke="#4f6246" stroke-width="1" stroke-linejoin="round"/><path d="M440 240v32" fill="none" stroke="#4f6246" stroke-width="1" stroke-linejoin="round"/><path d="M520 240v32" fill="none" stroke="#4f6246" stroke-width="1" stroke-linejoin="round"/><path d="M600 240v32" fill="none" stroke="#4f6246" stroke-width="1" stroke-linejoin="round"/><path d="M680 240v32" fill="none" stroke="#4f6246" stroke-width="1" stroke-linejoin="round"/><path d="M760 240v32" fill="none" stroke="#4f6246" stroke-width="1" stroke-linejoin="round"/><path d="M840 240v32" fill="none" stroke="#4f6246" stroke-width="1" stroke-linejoin="round"/><path d="M920 240v32" fill="none" stroke="#4f6246" stroke-width="1" stroke-linejoin="round"/><path d="M1000 240v32" fill="none" stroke="#4f6246" stroke-width="1" stroke-linejoin="round"/><path d="M1080 240v32" fill="none" stroke="#4f6246" stroke-width="1" stroke-linejoin="round"/><path d="M0 272H1120" fill="none" stroke="#4f6246" stroke-width="1" stroke-linejoin="round"/><path d="M0 272v32" fill="none" stroke="#4f6246" stroke-width="1" stroke-linejoin="round"/><path d="M80 272v32" fill="none" stroke="#4f6246" stroke-width="1" stroke-linejoin="round"/><path d="M160 272v32" fill="none" stroke="#4f6246" stroke-width="1" stroke-linejoin="round"/><path d="M240 272v32" fill="none" stroke="#4f6246" stroke-width="1" stroke-linejoin="round"/><path d="M320 272v32" fill="none" stroke="#4f6246" stroke-width="1" stroke-linejoin="round"/><path d="M400 272v32" fill="none" stroke="#4f6246" stroke-width="1" stroke-linejoin="round"/><path d="M480 272v32" fill="none" stroke="#4f6246" stroke-width="1" stroke-linejoin="round"/><path d="M560 272v32" fill="none" stroke="#4f6246" stroke-width="1" stroke-linejoin="round"/><path d="M640 272v32" fill="none" stroke="#4f6246" stroke-width="1" stroke-linejoin="round"/><path d="M720 272v32" fill="none" stroke="#4f6246" stroke-width="1" stroke-linejoin="round"/><path d="M800 272v32" fill="none" stroke="#4f6246" stroke-width="1" stroke-linejoin="round"/><path d="M880 272v32" fill="none" stroke="#4f6246" stroke-width="1" stroke-linejoin="round"/><path d="M960 272v32" fill="none" stroke="#4f6246" stroke-width="1" stroke-linejoin="round"/><path d="M1040 272v32" fill="none" stroke="#4f6246" stroke-width="1" stroke-linejoin="round"/><path d="M0 304H1120" fill="none" stroke="#4f6246" stroke-width="1" stroke-linejoin="round"/><path d="M40 304v32" fill="none" stroke="#4f6246" stroke-width="1" stroke-linejoin="round"/><path d="M120 304v32" fill="none" stroke="#4f6246" stroke-width="1" stroke-linejoin="round"/><path d="M200 304v32" fill="none" stroke="#4f6246" stroke-width="1" stroke-linejoin="round"/><path d="M280 304v32" fill="none" stroke="#4f6246" stroke-width="1" stroke-linejoin="round"/><path d="M360 304v32" fill="none" stroke="#4f6246" stroke-width="1" stroke-linejoin="round"/><path d="M440 304v32" fill="none" stroke="#4f6246" stroke-width="1" stroke-linejoin="round"/><path d="M520 304v32" fill="none" stroke="#4f6246" stroke-width="1" stroke-linejoin="round"/><path d="M600 304v32" fill="none" stroke="#4f6246" stroke-width="1" stroke-linejoin="round"/><path d="M680 304v32" fill="none" stroke="#4f6246" stroke-width="1" stroke-linejoin="round"/><path d="M760 304v32" fill="none" stroke="#4f6246" stroke-width="1" stroke-linejoin="round"/><path d="M840 304v32" fill="none" stroke="#4f6246" stroke-width="1" stroke-linejoin="round"/><path d="M920 304v32" fill="none" stroke="#4f6246" stroke-width="1" stroke-linejoin="round"/><path d="M1000 304v32" fill="none" stroke="#4f6246" stroke-width="1" stroke-linejoin="round"/><path d="M1080 304v32" fill="none" stroke="#4f6246" stroke-width="1" stroke-linejoin="round"/><path d="M0 336H1120" fill="none" stroke="#4f6246" stroke-width="1" stroke-linejoin="round"/><path d="M0 336v32" fill="none" stroke="#4f6246" stroke-width="1" stroke-linejoin="round"/><path d="M80 336v32" fill="none" stroke="#4f6246" stroke-width="1" stroke-linejoin="round"/><path d="M160 336v32" fill="none" stroke="#4f6246" stroke-width="1" stroke-linejoin="round"/><path d="M240 336v32" fill="none" stroke="#4f6246" stroke-width="1" stroke-linejoin="round"/><path d="M320 336v32" fill="none" stroke="#4f6246" stroke-width="1" stroke-linejoin="round"/><path d="M400 336v32" fill="none" stroke="#4f6246" stroke-width="1" stroke-linejoin="round"/><path d="M480 336v32" fill="none" stroke="#4f6246" stroke-width="1" stroke-linejoin="round"/><path d="M560 336v32" fill="none" stroke="#4f6246" stroke-width="1" stroke-linejoin="round"/><path d="M640 336v32" fill="none" stroke="#4f6246" stroke-width="1" stroke-linejoin="round"/><path d="M720 336v32" fill="none" stroke="#4f6246" stroke-width="1" stroke-linejoin="round"/><path d="M800 336v32" fill="none" stroke="#4f6246" stroke-width="1" stroke-linejoin="round"/><path d="M880 336v32" fill="none" stroke="#4f6246" stroke-width="1" stroke-linejoin="round"/><path d="M960 336v32" fill="none" stroke="#4f6246" stroke-width="1" stroke-linejoin="round"/><path d="M1040 336v32" fill="none" stroke="#4f6246" stroke-width="1" stroke-linejoin="round"/><path d="M0 368H1120" fill="none" stroke="#4f6246" stroke-width="1" stroke-linejoin="round"/><path d="M40 368v32" fill="none" stroke="#4f6246" stroke-width="1" stroke-linejoin="round"/><path d="M120 368v32" fill="none" stroke="#4f6246" stroke-width="1" stroke-linejoin="round"/><path d="M200 368v32" fill="none" stroke="#4f6246" stroke-width="1" stroke-linejoin="round"/><path d="M280 368v32" fill="none" stroke="#4f6246" stroke-width="1" stroke-linejoin="round"/><path d="M360 368v32" fill="none" stroke="#4f6246" stroke-width="1" stroke-linejoin="round"/><path d="M440 368v32" fill="none" stroke="#4f6246" stroke-width="1" stroke-linejoin="round"/><path d="M520 368v32" fill="none" stroke="#4f6246" stroke-width="1" stroke-linejoin="round"/><path d="M600 368v32" fill="none" stroke="#4f6246" stroke-width="1" stroke-linejoin="round"/><path d="M680 368v32" fill="none" stroke="#4f6246" stroke-width="1" stroke-linejoin="round"/><path d="M760 368v32" fill="none" stroke="#4f6246" stroke-width="1" stroke-linejoin="round"/><path d="M840 368v32" fill="none" stroke="#4f6246" stroke-width="1" stroke-linejoin="round"/><path d="M920 368v32" fill="none" stroke="#4f6246" stroke-width="1" stroke-linejoin="round"/><path d="M1000 368v32" fill="none" stroke="#4f6246" stroke-width="1" stroke-linejoin="round"/><path d="M1080 368v32" fill="none" stroke="#4f6246" stroke-width="1" stroke-linejoin="round"/><path d="M0 400H1120" fill="none" stroke="#4f6246" stroke-width="1" stroke-linejoin="round"/><path d="M0 400v32" fill="none" stroke="#4f6246" stroke-width="1" stroke-linejoin="round"/><path d="M80 400v32" fill="none" stroke="#4f6246" stroke-width="1" stroke-linejoin="round"/><path d="M160 400v32" fill="none" stroke="#4f6246" stroke-width="1" stroke-linejoin="round"/><path d="M240 400v32" fill="none" stroke="#4f6246" stroke-width="1" stroke-linejoin="round"/><path d="M320 400v32" fill="none" stroke="#4f6246" stroke-width="1" stroke-linejoin="round"/><path d="M400 400v32" fill="none" stroke="#4f6246" stroke-width="1" stroke-linejoin="round"/><path d="M480 400v32" fill="none" stroke="#4f6246" stroke-width="1" stroke-linejoin="round"/><path d="M560 400v32" fill="none" stroke="#4f6246" stroke-width="1" stroke-linejoin="round"/><path d="M640 400v32" fill="none" stroke="#4f6246" stroke-width="1" stroke-linejoin="round"/><path d="M720 400v32" fill="none" stroke="#4f6246" stroke-width="1" stroke-linejoin="round"/><path d="M800 400v32" fill="none" stroke="#4f6246" stroke-width="1" stroke-linejoin="round"/><path d="M880 400v32" fill="none" stroke="#4f6246" stroke-width="1" stroke-linejoin="round"/><path d="M960 400v32" fill="none" stroke="#4f6246" stroke-width="1" stroke-linejoin="round"/><path d="M1040 400v32" fill="none" stroke="#4f6246" stroke-width="1" stroke-linejoin="round"/><path d="M0 432H1120" fill="none" stroke="#4f6246" stroke-width="1" stroke-linejoin="round"/><path d="M40 432v32" fill="none" stroke="#4f6246" stroke-width="1" stroke-linejoin="round"/><path d="M120 432v32" fill="none" stroke="#4f6246" stroke-width="1" stroke-linejoin="round"/><path d="M200 432v32" fill="none" stroke="#4f6246" stroke-width="1" stroke-linejoin="round"/><path d="M280 432v32" fill="none" stroke="#4f6246" stroke-width="1" stroke-linejoin="round"/><path d="M360 432v32" fill="none" stroke="#4f6246" stroke-width="1" stroke-linejoin="round"/><path d="M440 432v32" fill="none" stroke="#4f6246" stroke-width="1" stroke-linejoin="round"/><path d="M520 432v32" fill="none" stroke="#4f6246" stroke-width="1" stroke-linejoin="round"/><path d="M600 432v32" fill="none" stroke="#4f6246" stroke-width="1" stroke-linejoin="round"/><path d="M680 432v32" fill="none" stroke="#4f6246" stroke-width="1" stroke-linejoin="round"/><path d="M760 432v32" fill="none" stroke="#4f6246" stroke-width="1" stroke-linejoin="round"/><path d="M840 432v32" fill="none" stroke="#4f6246" stroke-width="1" stroke-linejoin="round"/><path d="M920 432v32" fill="none" stroke="#4f6246" stroke-width="1" stroke-linejoin="round"/><path d="M1000 432v32" fill="none" stroke="#4f6246" stroke-width="1" stroke-linejoin="round"/><path d="M1080 432v32" fill="none" stroke="#4f6246" stroke-width="1" stroke-linejoin="round"/></g><rect x="0" y="0" width="1120" height="14" rx="0" fill="#4f6246"/><rect x="0" y="19" width="1120" height="5" rx="0" fill="#b99758"/><rect x="0" y="404" width="1120" height="36" rx="0" fill="#4f6246"/><rect x="0" y="401" width="1120" height="3" rx="0" fill="#b99758"/><rect x="22" y="30" width="16" height="370" rx="0" fill="#4f6246"/><rect x="18" y="28" width="24" height="8" rx="0" fill="#f5efdf"/><rect x="18" y="392" width="24" height="8" rx="0" fill="#f5efdf"/><rect x="294" y="30" width="16" height="370" rx="0" fill="#4f6246"/><rect x="290" y="28" width="24" height="8" rx="0" fill="#f5efdf"/><rect x="290" y="392" width="24" height="8" rx="0" fill="#f5efdf"/><rect x="810" y="30" width="16" height="370" rx="0" fill="#4f6246"/><rect x="806" y="28" width="24" height="8" rx="0" fill="#f5efdf"/><rect x="806" y="392" width="24" height="8" rx="0" fill="#f5efdf"/><rect x="1082" y="30" width="16" height="370" rx="0" fill="#4f6246"/><rect x="1078" y="28" width="24" height="8" rx="0" fill="#f5efdf"/><rect x="1078" y="392" width="24" height="8" rx="0" fill="#f5efdf"/><path d="M94 315V206.0a75.0 75.0 0 0 1 150 0V315Z" fill="#272c29" stroke="#f5efdf" stroke-width="5" stroke-linejoin="round"/><path d="M169.0 137V315M94 223.0H244" fill="none" stroke="#f5efdf" stroke-width="3" stroke-linejoin="round"/><path d="M104 303L234 161" fill="none" stroke="#58615c" stroke-width="3" stroke-linejoin="round"/><rect x="87" y="315" width="164" height="9" rx="0" fill="#f5efdf"/><path d="M878 315V206.0a75.0 75.0 0 0 1 150 0V315Z" fill="#272c29" stroke="#f5efdf" stroke-width="5" stroke-linejoin="round"/><path d="M953.0 137V315M878 223.0H1028" fill="none" stroke="#f5efdf" stroke-width="3" stroke-linejoin="round"/><path d="M888 303L1018 161" fill="none" stroke="#58615c" stroke-width="3" stroke-linejoin="round"/><rect x="871" y="315" width="164" height="9" rx="0" fill="#f5efdf"/><path d="M385 175l175-66 175 66Z" fill="#4f6246" stroke="#b99758" stroke-width="3" stroke-linejoin="round"/><rect x="405" y="194" width="26" height="203" rx="0" fill="#f5efdf" stroke="#4f6246" stroke-width="2"/><path d="M412 202v187" fill="none" stroke="#cbd6bd" stroke-width="2" stroke-linejoin="round"/><path d="M418 202v187" fill="none" stroke="#cbd6bd" stroke-width="2" stroke-linejoin="round"/><path d="M424 202v187" fill="none" stroke="#cbd6bd" stroke-width="2" stroke-linejoin="round"/><rect x="397" y="183" width="42" height="12" rx="0" fill="#f5efdf" stroke="#4f6246" stroke-width="2"/><rect x="397" y="390" width="42" height="10" rx="0" fill="#f5efdf" stroke="#4f6246" stroke-width="2"/><rect x="689" y="194" width="26" height="203" rx="0" fill="#f5efdf" stroke="#4f6246" stroke-width="2"/><path d="M696 202v187" fill="none" stroke="#cbd6bd" stroke-width="2" stroke-linejoin="round"/><path d="M702 202v187" fill="none" stroke="#cbd6bd" stroke-width="2" stroke-linejoin="round"/><path d="M708 202v187" fill="none" stroke="#cbd6bd" stroke-width="2" stroke-linejoin="round"/><rect x="681" y="183" width="42" height="12" rx="0" fill="#f5efdf" stroke="#4f6246" stroke-width="2"/><rect x="681" y="390" width="42" height="10" rx="0" fill="#f5efdf" stroke="#4f6246" stroke-width="2"/><rect x="454" y="199" width="212" height="201" rx="0" fill="#4f6246" stroke="#b99758" stroke-width="3"/><rect x="465" y="213" width="90" height="78" rx="0" fill="#272c29" stroke="#b99758" stroke-width="2"/><rect x="465" y="310" width="90" height="78" rx="0" fill="#272c29" stroke="#b99758" stroke-width="2"/><rect x="565" y="213" width="90" height="78" rx="0" fill="#272c29" stroke="#b99758" stroke-width="2"/><rect x="565" y="310" width="90" height="78" rx="0" fill="#272c29" stroke="#b99758" stroke-width="2"/><circle cx="550" cy="302" r="4" fill="#b99758" stroke="#272c29" stroke-width="2"/><circle cx="570" cy="302" r="4" fill="#b99758" stroke="#272c29" stroke-width="2"/><svg x="538" y="123" width="44" height="44" viewBox="0 0 64 64" fill="none" stroke="#b99758" stroke-width="2.4" stroke-linecap="round" stroke-linejoin="round"><path d="M31 55C33 40 32 24 32 9M31 23C18 25 12 17 13 8c11-1 19 5 18 15M33 31c13 2 20-6 20-15-11-2-19 4-20 15M31 41c-12 2-18-4-19-12 10-2 18 3 19 12M33 47c11 1 17-5 17-12-9-1-16 4-17 12"/></svg><path d="M50 402q40-110 0-170t15-173" fill="none" stroke="#4f6246" stroke-width="3" stroke-linejoin="round"/><path d="M50 80q-32 -24 -32 0q16 18 32 0" fill="#4f6246" stroke="#4f6246" stroke-width="1" stroke-linejoin="round"/><path d="M50 111q32 -24 32 0q-16 18 -32 0" fill="#4f6246" stroke="#4f6246" stroke-width="1" stroke-linejoin="round"/><path d="M50 142q-32 -24 -32 0q16 18 32 0" fill="#4f6246" stroke="#4f6246" stroke-width="1" stroke-linejoin="round"/><path d="M50 173q32 -24 32 0q-16 18 -32 0" fill="#4f6246" stroke="#4f6246" stroke-width="1" stroke-linejoin="round"/><path d="M50 204q-32 -24 -32 0q16 18 32 0" fill="#4f6246" stroke="#4f6246" stroke-width="1" stroke-linejoin="round"/><path d="M50 235q32 -24 32 0q-16 18 -32 0" fill="#4f6246" stroke="#4f6246" stroke-width="1" stroke-linejoin="round"/><path d="M50 266q-32 -24 -32 0q16 18 32 0" fill="#4f6246" stroke="#4f6246" stroke-width="1" stroke-linejoin="round"/><path d="M50 297q32 -24 32 0q-16 18 -32 0" fill="#4f6246" stroke="#4f6246" stroke-width="1" stroke-linejoin="round"/><path d="M50 328q-32 -24 -32 0q16 18 32 0" fill="#4f6246" stroke="#4f6246" stroke-width="1" stroke-linejoin="round"/><path d="M50 359q32 -24 32 0q-16 18 -32 0" fill="#4f6246" stroke="#4f6246" stroke-width="1" stroke-linejoin="round"/><path d="M265 402q40-110 0-170t15-173" fill="none" stroke="#4f6246" stroke-width="3" stroke-linejoin="round"/><path d="M265 80q-32 -24 -32 0q16 18 32 0" fill="#4f6246" stroke="#4f6246" stroke-width="1" stroke-linejoin="round"/><path d="M265 111q32 -24 32 0q-16 18 -32 0" fill="#4f6246" stroke="#4f6246" stroke-width="1" stroke-linejoin="round"/><path d="M265 142q-32 -24 -32 0q16 18 32 0" fill="#4f6246" stroke="#4f6246" stroke-width="1" stroke-linejoin="round"/><path d="M265 173q32 -24 32 0q-16 18 -32 0" fill="#4f6246" stroke="#4f6246" stroke-width="1" stroke-linejoin="round"/><path d="M265 204q-32 -24 -32 0q16 18 32 0" fill="#4f6246" stroke="#4f6246" stroke-width="1" stroke-linejoin="round"/><path d="M265 235q32 -24 32 0q-16 18 -32 0" fill="#4f6246" stroke="#4f6246" stroke-width="1" stroke-linejoin="round"/><path d="M265 266q-32 -24 -32 0q16 18 32 0" fill="#4f6246" stroke="#4f6246" stroke-width="1" stroke-linejoin="round"/><path d="M265 297q32 -24 32 0q-16 18 -32 0" fill="#4f6246" stroke="#4f6246" stroke-width="1" stroke-linejoin="round"/><path d="M265 328q-32 -24 -32 0q16 18 32 0" fill="#4f6246" stroke="#4f6246" stroke-width="1" stroke-linejoin="round"/><path d="M265 359q32 -24 32 0q-16 18 -32 0" fill="#4f6246" stroke="#4f6246" stroke-width="1" stroke-linejoin="round"/><path d="M825 402q40-110 0-170t15-173" fill="none" stroke="#4f6246" stroke-width="3" stroke-linejoin="round"/><path d="M825 80q-32 -24 -32 0q16 18 32 0" fill="#4f6246" stroke="#4f6246" stroke-width="1" stroke-linejoin="round"/><path d="M825 111q32 -24 32 0q-16 18 -32 0" fill="#4f6246" stroke="#4f6246" stroke-width="1" stroke-linejoin="round"/><path d="M825 142q-32 -24 -32 0q16 18 32 0" fill="#4f6246" stroke="#4f6246" stroke-width="1" stroke-linejoin="round"/><path d="M825 173q32 -24 32 0q-16 18 -32 0" fill="#4f6246" stroke="#4f6246" stroke-width="1" stroke-linejoin="round"/><path d="M825 204q-32 -24 -32 0q16 18 32 0" fill="#4f6246" stroke="#4f6246" stroke-width="1" stroke-linejoin="round"/><path d="M825 235q32 -24 32 0q-16 18 -32 0" fill="#4f6246" stroke="#4f6246" stroke-width="1" stroke-linejoin="round"/><path d="M825 266q-32 -24 -32 0q16 18 32 0" fill="#4f6246" stroke="#4f6246" stroke-width="1" stroke-linejoin="round"/><path d="M825 297q32 -24 32 0q-16 18 -32 0" fill="#4f6246" stroke="#4f6246" stroke-width="1" stroke-linejoin="round"/><path d="M825 328q-32 -24 -32 0q16 18 32 0" fill="#4f6246" stroke="#4f6246" stroke-width="1" stroke-linejoin="round"/><path d="M825 359q32 -24 32 0q-16 18 -32 0" fill="#4f6246" stroke="#4f6246" stroke-width="1" stroke-linejoin="round"/><path d="M1050 402q40-110 0-170t15-173" fill="none" stroke="#4f6246" stroke-width="3" stroke-linejoin="round"/><path d="M1050 80q-32 -24 -32 0q16 18 32 0" fill="#4f6246" stroke="#4f6246" stroke-width="1" stroke-linejoin="round"/><path d="M1050 111q32 -24 32 0q-16 18 -32 0" fill="#4f6246" stroke="#4f6246" stroke-width="1" stroke-linejoin="round"/><path d="M1050 142q-32 -24 -32 0q16 18 32 0" fill="#4f6246" stroke="#4f6246" stroke-width="1" stroke-linejoin="round"/><path d="M1050 173q32 -24 32 0q-16 18 -32 0" fill="#4f6246" stroke="#4f6246" stroke-width="1" stroke-linejoin="round"/><path d="M1050 204q-32 -24 -32 0q16 18 32 0" fill="#4f6246" stroke="#4f6246" stroke-width="1" stroke-linejoin="round"/><path d="M1050 235q32 -24 32 0q-16 18 -32 0" fill="#4f6246" stroke="#4f6246" stroke-width="1" stroke-linejoin="round"/><path d="M1050 266q-32 -24 -32 0q16 18 32 0" fill="#4f6246" stroke="#4f6246" stroke-width="1" stroke-linejoin="round"/><path d="M1050 297q32 -24 32 0q-16 18 -32 0" fill="#4f6246" stroke="#4f6246" stroke-width="1" stroke-linejoin="round"/><path d="M1050 328q-32 -24 -32 0q16 18 32 0" fill="#4f6246" stroke="#4f6246" stroke-width="1" stroke-linejoin="round"/><path d="M1050 359q32 -24 32 0q-16 18 -32 0" fill="#4f6246" stroke="#4f6246" stroke-width="1" stroke-linejoin="round"/><rect x="348" y="35" width="424" height="68" rx="0" fill="#4f6246" stroke="#b99758" stroke-width="2"/><text x="560" y="69" text-anchor="middle" fill="#f5efdf" font-family="Liberation Serif, serif" font-size="28" letter-spacing="1.4">IVy LEAGUE</text><text x="560" y="89" text-anchor="middle" fill="#b99758" font-family="Liberation Sans, serif" font-size="12" letter-spacing="3">PUBLIC AFFAIRS</text><rect x="52" y="354" width="218" height="34" rx="0" fill="#272c29" stroke="#b99758" stroke-width="1.5"/><text x="161.0" y="376" text-anchor="middle" fill="#f5efdf" font-family="Liberation Serif, serif" font-size="15" letter-spacing="0">Cultivated access</text><rect x="836" y="354" width="232" height="34" rx="0" fill="#272c29" stroke="#b99758" stroke-width="1.5"/><text x="952.0" y="376" text-anchor="middle" fill="#f5efdf" font-family="Liberation Serif, serif" font-size="15" letter-spacing="0">Perennial influence</text></svg>
