<svg xmlns="http://www.w3.org/2000/svg" width="280mm" height="110mm" viewBox="0 0 1120 440" role="img" aria-labelledby="title"><title id="title">ONE FELL SWOOP office exterior</title><rect x="0" y="0" width="1120" height="440" rx="0" fill="#e5bdb4"/><g opacity="0.2"><path d="M0 16H1120" fill="none" stroke="#744c43" stroke-width="1" stroke-linejoin="round"/><path d="M0 16v32" fill="none" stroke="#744c43" stroke-width="1" stroke-linejoin="round"/><path d="M80 16v32" fill="none" stroke="#744c43" stroke-width="1" stroke-linejoin="round"/><path d="M160 16v32" fill="none" stroke="#744c43" stroke-width="1" stroke-linejoin="round"/><path d="M240 16v32" fill="none" stroke="#744c43" stroke-width="1" stroke-linejoin="round"/><path d="M320 16v32" fill="none" stroke="#744c43" stroke-width="1" stroke-linejoin="round"/><path d="M400 16v32" fill="none" stroke="#744c43" stroke-width="1" stroke-linejoin="round"/><path d="M480 16v32" fill="none" stroke="#744c43" stroke-width="1" stroke-linejoin="round"/><path d="M560 16v32" fill="none" stroke="#744c43" stroke-width="1" stroke-linejoin="round"/><path d="M640 16v32" fill="none" stroke="#744c43" stroke-width="1" stroke-linejoin="round"/><path d="M720 16v32" fill="none" stroke="#744c43" stroke-width="1" stroke-linejoin="round"/><path d="M800 16v32" fill="none" stroke="#744c43" stroke-width="1" stroke-linejoin="round"/><path d="M880 16v32" fill="none" stroke="#744c43" stroke-width="1" stroke-linejoin="round"/><path d="M960 16v32" fill="none" stroke="#744c43" stroke-width="1" stroke-linejoin="round"/><path d="M1040 16v32" fill="none" stroke="#744c43" stroke-width="1" stroke-linejoin="round"/><path d="M0 48H1120" fill="none" stroke="#744c43" stroke-width="1" stroke-linejoin="round"/><path d="M40 48v32" fill="none" stroke="#744c43" stroke-width="1" stroke-linejoin="round"/><path d="M120 48v32" fill="none" stroke="#744c43" stroke-width="1" stroke-linejoin="round"/><path d="M200 48v32" fill="none" stroke="#744c43" stroke-width="1" stroke-linejoin="round"/><path d="M280 48v32" fill="none" stroke="#744c43" stroke-width="1" stroke-linejoin="round"/><path d="M360 48v32" fill="none" stroke="#744c43" stroke-width="1" stroke-linejoin="round"/><path d="M440 48v32" fill="none" stroke="#744c43" stroke-width="1" stroke-linejoin="round"/><path d="M520 48v32" fill="none" stroke="#744c43" stroke-width="1" stroke-linejoin="round"/><path d="M600 48v32" fill="none" stroke="#744c43" stroke-width="1" stroke-linejoin="round"/><path d="M680 48v32" fill="none" stroke="#744c43" stroke-width="1" stroke-linejoin="round"/><path d="M760 48v32" fill="none" stroke="#744c43" stroke-width="1" stroke-linejoin="round"/><path d="M840 48v32" fill="none" stroke="#744c43" stroke-width="1" stroke-linejoin="round"/><path d="M920 48v32" fill="none" stroke="#744c43" stroke-width="1" stroke-linejoin="round"/><path d="M1000 48v32" fill="none" stroke="#744c43" stroke-width="1" stroke-linejoin="round"/><path d="M1080 48v32" fill="none" stroke="#744c43" stroke-width="1" stroke-linejoin="round"/><path d="M0 80H1120" fill="none" stroke="#744c43" stroke-width="1" stroke-linejoin="round"/><path d="M0 80v32" fill="none" stroke="#744c43" stroke-width="1" stroke-linejoin="round"/><path d="M80 80v32" fill="none" stroke="#744c43" stroke-width="1" stroke-linejoin="round"/><path d="M160 80v32" fill="none" stroke="#744c43" stroke-width="1" stroke-linejoin="round"/><path d="M240 80v32" fill="none" stroke="#744c43" stroke-width="1" stroke-linejoin="round"/><path d="M320 80v32" fill="none" stroke="#744c43" stroke-width="1" stroke-linejoin="round"/><path d="M400 80v32" fill="none" stroke="#744c43" stroke-width="1" stroke-linejoin="round"/><path d="M480 80v32" fill="none" stroke="#744c43" stroke-width="1" stroke-linejoin="round"/><path d="M560 80v32" fill="none" stroke="#744c43" stroke-width="1" stroke-linejoin="round"/><path d="M640 80v32" fill="none" stroke="#744c43" stroke-width="1" stroke-linejoin="round"/><path d="M720 80v32" fill="none" stroke="#744c43" stroke-width="1" stroke-linejoin="round"/><path d="M800 80v32" fill="none" stroke="#744c43" stroke-width="1" stroke-linejoin="round"/><path d="M880 80v32" fill="none" stroke="#744c43" stroke-width="1" stroke-linejoin="round"/><path d="M960 80v32" fill="none" stroke="#744c43" stroke-width="1" stroke-linejoin="round"/><path d="M1040 80v32" fill="none" stroke="#744c43" stroke-width="1" stroke-linejoin="round"/><path d="M0 112H1120" fill="none" stroke="#744c43" stroke-width="1" stroke-linejoin="round"/><path d="M40 112v32" fill="none" stroke="#744c43" stroke-width="1" stroke-linejoin="round"/><path d="M120 112v32" fill="none" stroke="#744c43" stroke-width="1" stroke-linejoin="round"/><path d="M200 112v32" fill="none" stroke="#744c43" stroke-width="1" stroke-linejoin="round"/><path d="M280 112v32" fill="none" stroke="#744c43" stroke-width="1" stroke-linejoin="round"/><path d="M360 112v32" fill="none" stroke="#744c43" stroke-width="1" stroke-linejoin="round"/><path d="M440 112v32" fill="none" stroke="#744c43" stroke-width="1" stroke-linejoin="round"/><path d="M520 112v32" fill="none" stroke="#744c43" stroke-width="1" stroke-linejoin="round"/><path d="M600 112v32" fill="none" stroke="#744c43" stroke-width="1" stroke-linejoin="round"/><path d="M680 112v32" fill="none" stroke="#744c43" stroke-width="1" stroke-linejoin="round"/><path d="M760 112v32" fill="none" stroke="#744c43" stroke-width="1" stroke-linejoin="round"/><path d="M840 112v32" fill="none" stroke="#744c43" stroke-width="1" stroke-linejoin="round"/><path d="M920 112v32" fill="none" stroke="#744c43" stroke-width="1" stroke-linejoin="round"/><path d="M1000 112v32" fill="none" stroke="#744c43" stroke-width="1" stroke-linejoin="round"/><path d="M1080 112v32" fill="none" stroke="#744c43" stroke-width="1" stroke-linejoin="round"/><path d="M0 144H1120" fill="none" stroke="#744c43" stroke-width="1" stroke-linejoin="round"/><path d="M0 144v32" fill="none" stroke="#744c43" stroke-width="1" stroke-linejoin="round"/><path d="M80 144v32" fill="none" stroke="#744c43" stroke-width="1" stroke-linejoin="round"/><path d="M160 144v32" fill="none" stroke="#744c43" stroke-width="1" stroke-linejoin="round"/><path d="M240 144v32" fill="none" stroke="#744c43" stroke-width="1" stroke-linejoin="round"/><path d="M320 144v32" fill="none" stroke="#744c43" stroke-width="1" stroke-linejoin="round"/><path d="M400 144v32" fill="none" stroke="#744c43" stroke-width="1" stroke-linejoin="round"/><path d="M480 144v32" fill="none" stroke="#744c43" stroke-width="1" stroke-linejoin="round"/><path d="M560 144v32" fill="none" stroke="#744c43" stroke-width="1" stroke-linejoin="round"/><path d="M640 144v32" fill="none" stroke="#744c43" stroke-width="1" stroke-linejoin="round"/><path d="M720 144v32" fill="none" stroke="#744c43" stroke-width="1" stroke-linejoin="round"/><path d="M800 144v32" fill="none" stroke="#744c43" stroke-width="1" stroke-linejoin="round"/><path d="M880 144v32" fill="none" stroke="#744c43" stroke-width="1" stroke-linejoin="round"/><path d="M960 144v32" fill="none" stroke="#744c43" stroke-width="1" stroke-linejoin="round"/><path d="M1040 144v32" fill="none" stroke="#744c43" stroke-width="1" stroke-linejoin="round"/><path d="M0 176H1120" fill="none" stroke="#744c43" stroke-width="1" stroke-linejoin="round"/><path d="M40 176v32" fill="none" stroke="#744c43" stroke-width="1" stroke-linejoin="round"/><path d="M120 176v32" fill="none" stroke="#744c43" stroke-width="1" stroke-linejoin="round"/><path d="M200 176v32" fill="none" stroke="#744c43" stroke-width="1" stroke-linejoin="round"/><path d="M280 176v32" fill="none" stroke="#744c43" stroke-width="1" stroke-linejoin="round"/><path d="M360 176v32" fill="none" stroke="#744c43" stroke-width="1" stroke-linejoin="round"/><path d="M440 176v32" fill="none" stroke="#744c43" stroke-width="1" stroke-linejoin="round"/><path d="M520 176v32" fill="none" stroke="#744c43" stroke-width="1" stroke-linejoin="round"/><path d="M600 176v32" fill="none" stroke="#744c43" stroke-width="1" stroke-linejoin="round"/><path d="M680 176v32" fill="none" stroke="#744c43" stroke-width="1" stroke-linejoin="round"/><path d="M760 176v32" fill="none" stroke="#744c43" stroke-width="1" stroke-linejoin="round"/><path d="M840 176v32" fill="none" stroke="#744c43" stroke-width="1" stroke-linejoin="round"/><path d="M920 176v32" fill="none" stroke="#744c43" stroke-width="1" stroke-linejoin="round"/><path d="M1000 176v32" fill="none" stroke="#744c43" stroke-width="1" stroke-linejoin="round"/><path d="M1080 176v32" fill="none" stroke="#744c43" stroke-width="1" stroke-linejoin="round"/><path d="M0 208H1120" fill="none" stroke="#744c43" stroke-width="1" stroke-linejoin="round"/><path d="M0 208v32" fill="none" stroke="#744c43" stroke-width="1" stroke-linejoin="round"/><path d="M80 208v32" fill="none" stroke="#744c43" stroke-width="1" stroke-linejoin="round"/><path d="M160 208v32" fill="none" stroke="#744c43" stroke-width="1" stroke-linejoin="round"/><path d="M240 208v32" fill="none" stroke="#744c43" stroke-width="1" stroke-linejoin="round"/><path d="M320 208v32" fill="none" stroke="#744c43" stroke-width="1" stroke-linejoin="round"/><path d="M400 208v32" fill="none" stroke="#744c43" stroke-width="1" stroke-linejoin="round"/><path d="M480 208v32" fill="none" stroke="#744c43" stroke-width="1" stroke-linejoin="round"/><path d="M560 208v32" fill="none" stroke="#744c43" stroke-width="1" stroke-linejoin="round"/><path d="M640 208v32" fill="none" stroke="#744c43" stroke-width="1" stroke-linejoin="round"/><path d="M720 208v32" fill="none" stroke="#744c43" stroke-width="1" stroke-linejoin="round"/><path d="M800 208v32" fill="none" stroke="#744c43" stroke-width="1" stroke-linejoin="round"/><path d="M880 208v32" fill="none" stroke="#744c43" stroke-width="1" stroke-linejoin="round"/><path d="M960 208v32" fill="none" stroke="#744c43" stroke-width="1" stroke-linejoin="round"/><path d="M1040 208v32" fill="none" stroke="#744c43" stroke-width="1" stroke-linejoin="round"/><path d="M0 240H1120" fill="none" stroke="#744c43" stroke-width="1" stroke-linejoin="round"/><path d="M40 240v32" fill="none" stroke="#744c43" stroke-width="1" stroke-linejoin="round"/><path d="M120 240v32" fill="none" stroke="#744c43" stroke-width="1" stroke-linejoin="round"/><path d="M200 240v32" fill="none" stroke="#744c43" stroke-width="1" stroke-linejoin="round"/><path d="M280 240v32" fill="none" stroke="#744c43" stroke-width="1" stroke-linejoin="round"/><path d="M360 240v32" fill="none" stroke="#744c43" stroke-width="1" stroke-linejoin="round"/><path d="M440 240v32" fill="none" stroke="#744c43" stroke-width="1" stroke-linejoin="round"/><path d="M520 240v32" fill="none" stroke="#744c43" stroke-width="1" stroke-linejoin="round"/><path d="M600 240v32" fill="none" stroke="#744c43" stroke-width="1" stroke-linejoin="round"/><path d="M680 240v32" fill="none" stroke="#744c43" stroke-width="1" stroke-linejoin="round"/><path d="M760 240v32" fill="none" stroke="#744c43" stroke-width="1" stroke-linejoin="round"/><path d="M840 240v32" fill="none" stroke="#744c43" stroke-width="1" stroke-linejoin="round"/><path d="M920 240v32" fill="none" stroke="#744c43" stroke-width="1" stroke-linejoin="round"/><path d="M1000 240v32" fill="none" stroke="#744c43" stroke-width="1" stroke-linejoin="round"/><path d="M1080 240v32" fill="none" stroke="#744c43" stroke-width="1" stroke-linejoin="round"/><path d="M0 272H1120" fill="none" stroke="#744c43" stroke-width="1" stroke-linejoin="round"/><path d="M0 272v32" fill="none" stroke="#744c43" stroke-width="1" stroke-linejoin="round"/><path d="M80 272v32" fill="none" stroke="#744c43" stroke-width="1" stroke-linejoin="round"/><path d="M160 272v32" fill="none" stroke="#744c43" stroke-width="1" stroke-linejoin="round"/><path d="M240 272v32" fill="none" stroke="#744c43" stroke-width="1" stroke-linejoin="round"/><path d="M320 272v32" fill="none" stroke="#744c43" stroke-width="1" stroke-linejoin="round"/><path d="M400 272v32" fill="none" stroke="#744c43" stroke-width="1" stroke-linejoin="round"/><path d="M480 272v32" fill="none" stroke="#744c43" stroke-width="1" stroke-linejoin="round"/><path d="M560 272v32" fill="none" stroke="#744c43" stroke-width="1" stroke-linejoin="round"/><path d="M640 272v32" fill="none" stroke="#744c43" stroke-width="1" stroke-linejoin="round"/><path d="M720 272v32" fill="none" stroke="#744c43" stroke-width="1" stroke-linejoin="round"/><path d="M800 272v32" fill="none" stroke="#744c43" stroke-width="1" stroke-linejoin="round"/><path d="M880 272v32" fill="none" stroke="#744c43" stroke-width="1" stroke-linejoin="round"/><path d="M960 272v32" fill="none" stroke="#744c43" stroke-width="1" stroke-linejoin="round"/><path d="M1040 272v32" fill="none" stroke="#744c43" stroke-width="1" stroke-linejoin="round"/><path d="M0 304H1120" fill="none" stroke="#744c43" stroke-width="1" stroke-linejoin="round"/><path d="M40 304v32" fill="none" stroke="#744c43" stroke-width="1" stroke-linejoin="round"/><path d="M120 304v32" fill="none" stroke="#744c43" stroke-width="1" stroke-linejoin="round"/><path d="M200 304v32" fill="none" stroke="#744c43" stroke-width="1" stroke-linejoin="round"/><path d="M280 304v32" fill="none" stroke="#744c43" stroke-width="1" stroke-linejoin="round"/><path d="M360 304v32" fill="none" stroke="#744c43" stroke-width="1" stroke-linejoin="round"/><path d="M440 304v32" fill="none" stroke="#744c43" stroke-width="1" stroke-linejoin="round"/><path d="M520 304v32" fill="none" stroke="#744c43" stroke-width="1" stroke-linejoin="round"/><path d="M600 304v32" fill="none" stroke="#744c43" stroke-width="1" stroke-linejoin="round"/><path d="M680 304v32" fill="none" stroke="#744c43" stroke-width="1" stroke-linejoin="round"/><path d="M760 304v32" fill="none" stroke="#744c43" stroke-width="1" stroke-linejoin="round"/><path d="M840 304v32" fill="none" stroke="#744c43" stroke-width="1" stroke-linejoin="round"/><path d="M920 304v32" fill="none" stroke="#744c43" stroke-width="1" stroke-linejoin="round"/><path d="M1000 304v32" fill="none" stroke="#744c43" stroke-width="1" stroke-linejoin="round"/><path d="M1080 304v32" fill="none" stroke="#744c43" stroke-width="1" stroke-linejoin="round"/><path d="M0 336H1120" fill="none" stroke="#744c43" stroke-width="1" stroke-linejoin="round"/><path d="M0 336v32" fill="none" stroke="#744c43" stroke-width="1" stroke-linejoin="round"/><path d="M80 336v32" fill="none" stroke="#744c43" stroke-width="1" stroke-linejoin="round"/><path d="M160 336v32" fill="none" stroke="#744c43" stroke-width="1" stroke-linejoin="round"/><path d="M240 336v32" fill="none" stroke="#744c43" stroke-width="1" stroke-linejoin="round"/><path d="M320 336v32" fill="none" stroke="#744c43" stroke-width="1" stroke-linejoin="round"/><path d="M400 336v32" fill="none" stroke="#744c43" stroke-width="1" stroke-linejoin="round"/><path d="M480 336v32" fill="none" stroke="#744c43" stroke-width="1" stroke-linejoin="round"/><path d="M560 336v32" fill="none" stroke="#744c43" stroke-width="1" stroke-linejoin="round"/><path d="M640 336v32" fill="none" stroke="#744c43" stroke-width="1" stroke-linejoin="round"/><path d="M720 336v32" fill="none" stroke="#744c43" stroke-width="1" stroke-linejoin="round"/><path d="M800 336v32" fill="none" stroke="#744c43" stroke-width="1" stroke-linejoin="round"/><path d="M880 336v32" fill="none" stroke="#744c43" stroke-width="1" stroke-linejoin="round"/><path d="M960 336v32" fill="none" stroke="#744c43" stroke-width="1" stroke-linejoin="round"/><path d="M1040 336v32" fill="none" stroke="#744c43" stroke-width="1" stroke-linejoin="round"/><path d="M0 368H1120" fill="none" stroke="#744c43" stroke-width="1" stroke-linejoin="round"/><path d="M40 368v32" fill="none" stroke="#744c43" stroke-width="1" stroke-linejoin="round"/><path d="M120 368v32" fill="none" stroke="#744c43" stroke-width="1" stroke-linejoin="round"/><path d="M200 368v32" fill="none" stroke="#744c43" stroke-width="1" stroke-linejoin="round"/><path d="M280 368v32" fill="none" stroke="#744c43" stroke-width="1" stroke-linejoin="round"/><path d="M360 368v32" fill="none" stroke="#744c43" stroke-width="1" stroke-linejoin="round"/><path d="M440 368v32" fill="none" stroke="#744c43" stroke-width="1" stroke-linejoin="round"/><path d="M520 368v32" fill="none" stroke="#744c43" stroke-width="1" stroke-linejoin="round"/><path d="M600 368v32" fill="none" stroke="#744c43" stroke-width="1" stroke-linejoin="round"/><path d="M680 368v32" fill="none" stroke="#744c43" stroke-width="1" stroke-linejoin="round"/><path d="M760 368v32" fill="none" stroke="#744c43" stroke-width="1" stroke-linejoin="round"/><path d="M840 368v32" fill="none" stroke="#744c43" stroke-width="1" stroke-linejoin="round"/><path d="M920 368v32" fill="none" stroke="#744c43" stroke-width="1" stroke-linejoin="round"/><path d="M1000 368v32" fill="none" stroke="#744c43" stroke-width="1" stroke-linejoin="round"/><path d="M1080 368v32" fill="none" stroke="#744c43" stroke-width="1" stroke-linejoin="round"/><path d="M0 400H1120" fill="none" stroke="#744c43" stroke-width="1" stroke-linejoin="round"/><path d="M0 400v32" fill="none" stroke="#744c43" stroke-width="1" stroke-linejoin="round"/><path d="M80 400v32" fill="none" stroke="#744c43" stroke-width="1" stroke-linejoin="round"/><path d="M160 400v32" fill="none" stroke="#744c43" stroke-width="1" stroke-linejoin="round"/><path d="M240 400v32" fill="none" stroke="#744c43" stroke-width="1" stroke-linejoin="round"/><path d="M320 400v32" fill="none" stroke="#744c43" stroke-width="1" stroke-linejoin="round"/><path d="M400 400v32" fill="none" stroke="#744c43" stroke-width="1" stroke-linejoin="round"/><path d="M480 400v32" fill="none" stroke="#744c43" stroke-width="1" stroke-linejoin="round"/><path d="M560 400v32" fill="none" stroke="#744c43" stroke-width="1" stroke-linejoin="round"/><path d="M640 400v32" fill="none" stroke="#744c43" stroke-width="1" stroke-linejoin="round"/><path d="M720 400v32" fill="none" stroke="#744c43" stroke-width="1" stroke-linejoin="round"/><path d="M800 400v32" fill="none" stroke="#744c43" stroke-width="1" stroke-linejoin="round"/><path d="M880 400v32" fill="none" stroke="#744c43" stroke-width="1" stroke-linejoin="round"/><path d="M960 400v32" fill="none" stroke="#744c43" stroke-width="1" stroke-linejoin="round"/><path d="M1040 400v32" fill="none" stroke="#744c43" stroke-width="1" stroke-linejoin="round"/><path d="M0 432H1120" fill="none" stroke="#744c43" stroke-width="1" stroke-linejoin="round"/><path d="M40 432v32" fill="none" stroke="#744c43" stroke-width="1" stroke-linejoin="round"/><path d="M120 432v32" fill="none" stroke="#744c43" stroke-width="1" stroke-linejoin="round"/><path d="M200 432v32" fill="none" stroke="#744c43" stroke-width="1" stroke-linejoin="round"/><path d="M280 432v32" fill="none" stroke="#744c43" stroke-width="1" stroke-linejoin="round"/><path d="M360 432v32" fill="none" stroke="#744c43" stroke-width="1" stroke-linejoin="round"/><path d="M440 432v32" fill="none" stroke="#744c43" stroke-width="1" stroke-linejoin="round"/><path d="M520 432v32" fill="none" stroke="#744c43" stroke-width="1" stroke-linejoin="round"/><path d="M600 432v32" fill="none" stroke="#744c43" stroke-width="1" stroke-linejoin="round"/><path d="M680 432v32" fill="none" stroke="#744c43" stroke-width="1" stroke-linejoin="round"/><path d="M760 432v32" fill="none" stroke="#744c43" stroke-width="1" stroke-linejoin="round"/><path d="M840 432v32" fill="none" stroke="#744c43" stroke-width="1" stroke-linejoin="round"/><path d="M920 432v32" fill="none" stroke="#744c43" stroke-width="1" stroke-linejoin="round"/><path d="M1000 432v32" fill="none" stroke="#744c43" stroke-width="1" stroke-linejoin="round"/><path d="M1080 432v32" fill="none" stroke="#744c43" stroke-width="1" stroke-linejoin="round"/></g><rect x="0" y="0" width="1120" height="14" rx="0" fill="#744c43"/><rect x="0" y="19" width="1120" height="5" rx="0" fill="#b99758"/><rect x="0" y="404" width="1120" height="36" rx="0" fill="#744c43"/><rect x="0" y="401" width="1120" height="3" rx="0" fill="#b99758"/><rect x="22" y="30" width="16" height="370" rx="0" fill="#744c43"/><rect x="18" y="28" width="24" height="8" rx="0" fill="#f5efdf"/><rect x="18" y="392" width="24" height="8" rx="0" fill="#f5efdf"/><rect x="294" y="30" width="16" height="370" rx="0" fill="#744c43"/><rect x="290" y="28" width="24" height="8" rx="0" fill="#f5efdf"/><rect x="290" y="392" width="24" height="8" rx="0" fill="#f5efdf"/><rect x="810" y="30" width="16" height="370" rx="0" fill="#744c43"/><rect x="806" y="28" width="24" height="8" rx="0" fill="#f5efdf"/><rect x="806" y="392" width="24" height="8" rx="0" fill="#f5efdf"/><rect x="1082" y="30" width="16" height="370" rx="0" fill="#744c43"/><rect x="1078" y="28" width="24" height="8" rx="0" fill="#f5efdf"/><rect x="1078" y="392" width="24" height="8" rx="0" fill="#f5efdf"/><path d="M50 390V90l18-26 18 26v300" fill="#e5bdb4" stroke="#744c43" stroke-width="3" stroke-linejoin="round"/><path d="M57 360V120" fill="none" stroke="#b99758" stroke-width="3" stroke-linejoin="round"/><path d="M67 360V110" fill="none" stroke="#b99758" stroke-width="3" stroke-linejoin="round"/><path d="M77 360V100" fill="none" stroke="#b99758" stroke-width="3" stroke-linejoin="round"/><path d="M214 390V90l18-26 18 26v300" fill="#e5bdb4" stroke="#744c43" stroke-width="3" stroke-linejoin="round"/><path d="M221 360V120" fill="none" stroke="#b99758" stroke-width="3" stroke-linejoin="round"/><path d="M231 360V110" fill="none" stroke="#b99758" stroke-width="3" stroke-linejoin="round"/><path d="M241 360V100" fill="none" stroke="#b99758" stroke-width="3" stroke-linejoin="round"/><path d="M834 390V90l18-26 18 26v300" fill="#e5bdb4" stroke="#744c43" stroke-width="3" stroke-linejoin="round"/><path d="M841 360V120" fill="none" stroke="#b99758" stroke-width="3" stroke-linejoin="round"/><path d="M851 360V110" fill="none" stroke="#b99758" stroke-width="3" stroke-linejoin="round"/><path d="M861 360V100" fill="none" stroke="#b99758" stroke-width="3" stroke-linejoin="round"/><path d="M998 390V90l18-26 18 26v300" fill="#e5bdb4" stroke="#744c43" stroke-width="3" stroke-linejoin="round"/><path d="M1005 360V120" fill="none" stroke="#b99758" stroke-width="3" stroke-linejoin="round"/><path d="M1015 360V110" fill="none" stroke="#b99758" stroke-width="3" stroke-linejoin="round"/><path d="M1025 360V100" fill="none" stroke="#b99758" stroke-width="3" stroke-linejoin="round"/><rect x="98" y="135" width="140" height="184" rx="0" fill="#272c29" stroke="#b99758" stroke-width="5"/><path d="M168.0 141V319M98 227.0H238" fill="none" stroke="#b99758" stroke-width="3" stroke-linejoin="round"/><path d="M108 307L228 165" fill="none" stroke="#58615c" stroke-width="3" stroke-linejoin="round"/><rect x="91" y="319" width="154" height="9" rx="0" fill="#b99758"/><rect x="882" y="135" width="140" height="184" rx="0" fill="#272c29" stroke="#b99758" stroke-width="5"/><path d="M952.0 141V319M882 227.0H1022" fill="none" stroke="#b99758" stroke-width="3" stroke-linejoin="round"/><path d="M892 307L1012 165" fill="none" stroke="#58615c" stroke-width="3" stroke-linejoin="round"/><rect x="875" y="319" width="154" height="9" rx="0" fill="#b99758"/><path d="M442 392V181l32-28v-27h172v27l32 28v211" fill="#744c43" stroke="#b99758" stroke-width="3" stroke-linejoin="round"/><rect x="492" y="202" width="136" height="198" rx="0" fill="#272c29" stroke="#b99758" stroke-width="5"/><path d="M560.0 208V400M492 301.0H628" fill="none" stroke="#b99758" stroke-width="3" stroke-linejoin="round"/><path d="M502 388L618 232" fill="none" stroke="#58615c" stroke-width="3" stroke-linejoin="round"/><rect x="485" y="400" width="150" height="9" rx="0" fill="#b99758"/><path d="M347 174l50 46v100" fill="none" stroke="#744c43" stroke-width="4" stroke-linejoin="round"/><path d="M363 185l50 46v88" fill="none" stroke="#744c43" stroke-width="4" stroke-linejoin="round"/><path d="M379 196l50 46v76" fill="none" stroke="#744c43" stroke-width="4" stroke-linejoin="round"/><path d="M395 207l50 46v64" fill="none" stroke="#744c43" stroke-width="4" stroke-linejoin="round"/><path d="M411 218l50 46v52" fill="none" stroke="#744c43" stroke-width="4" stroke-linejoin="round"/><path d="M773 174l-50 46v100" fill="none" stroke="#744c43" stroke-width="4" stroke-linejoin="round"/><path d="M757 185l-50 46v88" fill="none" stroke="#744c43" stroke-width="4" stroke-linejoin="round"/><path d="M741 196l-50 46v76" fill="none" stroke="#744c43" stroke-width="4" stroke-linejoin="round"/><path d="M725 207l-50 46v64" fill="none" stroke="#744c43" stroke-width="4" stroke-linejoin="round"/><path d="M709 218l-50 46v52" fill="none" stroke="#744c43" stroke-width="4" stroke-linejoin="round"/><svg x="526" y="129" width="68" height="68" viewBox="0 0 64 64" fill="none" stroke="#b99758" stroke-width="2.4" stroke-linecap="round" stroke-linejoin="round"><path d="M7 46C23 42 37 31 53 10c-3 17-11 31-24 42M13 41l8 14M23 36l8 13M34 28l7 11"/></svg><rect x="348" y="35" width="424" height="68" rx="0" fill="#744c43" stroke="#b99758" stroke-width="2"/><text x="560" y="69" text-anchor="middle" fill="#f5efdf" font-family="Liberation Serif, serif" font-size="28" letter-spacing="1.4">ONE FELL SWOOP</text><text x="560" y="89" text-anchor="middle" fill="#b99758" font-family="Liberation Sans, serif" font-size="12" letter-spacing="3">PUBLIC AFFAIRS</text><rect x="52" y="354" width="218" height="34" rx="0" fill="#272c29" stroke="#b99758" stroke-width="1.5"/><text x="161.0" y="376" text-anchor="middle" fill="#f5efdf" font-family="Liberation Serif, serif" font-size="15" letter-spacing="0">Rapid response</text><rect x="836" y="354" width="232" height="34" rx="0" fill="#272c29" stroke="#b99758" stroke-width="1.5"/><text x="952.0" y="376" text-anchor="middle" fill="#f5efdf" font-family="Liberation Serif, serif" font-size="15" letter-spacing="0">Wing of influence</text></svg>
