<svg xmlns="http://www.w3.org/2000/svg" viewBox="0 0 1200 1020" role="img" aria-labelledby="title desc">
<title id="title">9. Crescent bay — experimental Bellweather map</title>
<desc id="desc">An inner coastal route and an outer inland route follow the same broad bay. Connections between them allow players to change approach without crossing water. Only printed routes define adjacency for every effect. District footprints and route intersections create no additional links. Three regions hold eighteen Support each; Bellweather holds three separately.</desc>
<style>text{font-family:Arial,sans-serif;fill:#19354b}.name{font-size:12px;font-weight:700}.detail{font-size:10px}.terrain{font-size:15px;font-style:italic;fill:#355564}</style>
<rect width="1200" height="1020" fill="white"/>
<text x="40" y="44" font-size="27" font-weight="700">9. Crescent bay</text>
<text x="40" y="74" font-size="14">Urban 18 Support / 9 votes     Mixed 18 / 9     Outlying 18 / 9     Bellweather 3 separate</text>
<rect x="40" y="110" width="1120" height="790" rx="12" fill="#eff1e9"/>
<ellipse cx="600" cy="565" rx="185" ry="185" fill="#a9d9ec" stroke="#719cac" stroke-width="2"/>
<polygon points="600.0,565.0 820.0,900.0 380.0,900.0" fill="#a9d9ec" stroke="#71848a" stroke-width="1.5" stroke-linejoin="round"/>
<g data-route="G-O"><title>Orchard–Coast: road</title><path d="M 821.2,719.9 L 948.1,808.8" fill="none" stroke="#536975" stroke-width="10" stroke-linecap="round"/><path d="M 821.2,719.9 L 948.1,808.8" fill="none" stroke="#ffffff" stroke-width="6"/></g>
<g data-route="A-H"><title>Harbormouth–Meadow: road</title><path d="M 378.8,719.9 L 251.9,808.8" fill="none" stroke="#536975" stroke-width="10" stroke-linecap="round"/><path d="M 378.8,719.9 L 251.9,808.8" fill="none" stroke="#ffffff" stroke-width="6"/></g>
<g data-route="D-L"><title>Northgate–Heath: road</title><path d="M 682.8,308.0 L 730.3,160.5" fill="none" stroke="#536975" stroke-width="10" stroke-linecap="round"/><path d="M 682.8,308.0 L 730.3,160.5" fill="none" stroke="#ffffff" stroke-width="6"/></g>
<g data-route="X-K"><title>Bellweather–Marsh: road</title><path d="M 517.2,308.0 L 469.7,160.5" fill="none" stroke="#536975" stroke-width="10" stroke-linecap="round"/><path d="M 517.2,308.0 L 469.7,160.5" fill="none" stroke="#ffffff" stroke-width="6"/></g>
<g data-route="B-I"><title>Grand Market–Westfield: road</title><path d="M 330.0,561.6 L 175.0,559.7" fill="none" stroke="#536975" stroke-width="10" stroke-linecap="round"/><path d="M 330.0,561.6 L 175.0,559.7" fill="none" stroke="#ffffff" stroke-width="6"/></g>
<g data-route="F-N"><title>Crown Road–Vale: road</title><path d="M 870.0,561.6 L 1025.0,559.7" fill="none" stroke="#536975" stroke-width="10" stroke-linecap="round"/><path d="M 870.0,561.6 L 1025.0,559.7" fill="none" stroke="#ffffff" stroke-width="6"/></g>
<g data-route="E-M"><title>Canal Ward–Downs: road</title><path d="M 817.2,404.7 L 942.0,312.6" fill="none" stroke="#536975" stroke-width="10" stroke-linecap="round"/><path d="M 817.2,404.7 L 942.0,312.6" fill="none" stroke="#ffffff" stroke-width="6"/></g>
<g data-route="C-J"><title>Ironwood–Eastfield: road</title><path d="M 382.8,404.7 L 258.0,312.6" fill="none" stroke="#536975" stroke-width="10" stroke-linecap="round"/><path d="M 382.8,404.7 L 258.0,312.6" fill="none" stroke="#ffffff" stroke-width="6"/></g>
<g data-route="B-C"><title>Grand Market–Ironwood: road</title><path d="M 330.0,561.6 L 382.8,404.7" fill="none" stroke="#536975" stroke-width="10" stroke-linecap="round"/><path d="M 330.0,561.6 L 382.8,404.7" fill="none" stroke="#ffffff" stroke-width="6"/></g>
<g data-route="E-F"><title>Canal Ward–Crown Road: road</title><path d="M 817.2,404.7 L 870.0,561.6" fill="none" stroke="#536975" stroke-width="10" stroke-linecap="round"/><path d="M 817.2,404.7 L 870.0,561.6" fill="none" stroke="#ffffff" stroke-width="6"/></g>
<g data-route="C-X"><title>Ironwood–Bellweather: road</title><path d="M 382.8,404.7 L 517.2,308.0" fill="none" stroke="#536975" stroke-width="10" stroke-linecap="round"/><path d="M 382.8,404.7 L 517.2,308.0" fill="none" stroke="#ffffff" stroke-width="6"/></g>
<g data-route="D-E"><title>Northgate–Canal Ward: road</title><path d="M 682.8,308.0 L 817.2,404.7" fill="none" stroke="#536975" stroke-width="10" stroke-linecap="round"/><path d="M 682.8,308.0 L 817.2,404.7" fill="none" stroke="#ffffff" stroke-width="6"/></g>
<g data-route="X-D"><title>Bellweather–Northgate: road</title><path d="M 517.2,308.0 L 682.8,308.0" fill="none" stroke="#536975" stroke-width="10" stroke-linecap="round"/><path d="M 517.2,308.0 L 682.8,308.0" fill="none" stroke="#ffffff" stroke-width="6"/></g>
<g data-route="F-G"><title>Crown Road–Orchard: road</title><path d="M 870.0,561.6 L 821.2,719.9" fill="none" stroke="#536975" stroke-width="10" stroke-linecap="round"/><path d="M 870.0,561.6 L 821.2,719.9" fill="none" stroke="#ffffff" stroke-width="6"/></g>
<g data-route="A-B"><title>Harbormouth–Grand Market: road</title><path d="M 378.8,719.9 L 330.0,561.6" fill="none" stroke="#536975" stroke-width="10" stroke-linecap="round"/><path d="M 378.8,719.9 L 330.0,561.6" fill="none" stroke="#ffffff" stroke-width="6"/></g>
<g data-route="X-L"><title>Bellweather–Heath: road</title><path d="M 517.2,308.0 L 730.3,160.5" fill="none" stroke="#536975" stroke-width="10" stroke-linecap="round"/><path d="M 517.2,308.0 L 730.3,160.5" fill="none" stroke="#ffffff" stroke-width="6"/></g>
<g data-route="B-J"><title>Grand Market–Eastfield: road</title><path d="M 330.0,561.6 L 258.0,312.6" fill="none" stroke="#536975" stroke-width="10" stroke-linecap="round"/><path d="M 330.0,561.6 L 258.0,312.6" fill="none" stroke="#ffffff" stroke-width="6"/></g>
<g data-route="F-M"><title>Crown Road–Downs: road</title><path d="M 870.0,561.6 L 942.0,312.6" fill="none" stroke="#536975" stroke-width="10" stroke-linecap="round"/><path d="M 870.0,561.6 L 942.0,312.6" fill="none" stroke="#ffffff" stroke-width="6"/></g>
<g data-route="C-K"><title>Ironwood–Marsh: road</title><path d="M 382.8,404.7 L 469.7,160.5" fill="none" stroke="#536975" stroke-width="10" stroke-linecap="round"/><path d="M 382.8,404.7 L 469.7,160.5" fill="none" stroke="#ffffff" stroke-width="6"/></g>
<g data-route="E-L"><title>Canal Ward–Heath: road</title><path d="M 817.2,404.7 L 730.3,160.5" fill="none" stroke="#536975" stroke-width="10" stroke-linecap="round"/><path d="M 817.2,404.7 L 730.3,160.5" fill="none" stroke="#ffffff" stroke-width="6"/></g>
<g data-route="A-I"><title>Harbormouth–Westfield: road</title><path d="M 378.8,719.9 L 175.0,559.7" fill="none" stroke="#536975" stroke-width="10" stroke-linecap="round"/><path d="M 378.8,719.9 L 175.0,559.7" fill="none" stroke="#ffffff" stroke-width="6"/></g>
<g data-route="G-N"><title>Orchard–Vale: road</title><path d="M 821.2,719.9 L 1025.0,559.7" fill="none" stroke="#536975" stroke-width="10" stroke-linecap="round"/><path d="M 821.2,719.9 L 1025.0,559.7" fill="none" stroke="#ffffff" stroke-width="6"/></g>
<g data-route="K-L"><title>Marsh–Heath: road</title><path d="M 469.7,160.5 L 730.3,160.5" fill="none" stroke="#536975" stroke-width="10" stroke-linecap="round"/><path d="M 469.7,160.5 L 730.3,160.5" fill="none" stroke="#ffffff" stroke-width="6"/></g>
<g data-route="I-J"><title>Westfield–Eastfield: road</title><path d="M 175.0,559.7 L 258.0,312.6" fill="none" stroke="#536975" stroke-width="10" stroke-linecap="round"/><path d="M 175.0,559.7 L 258.0,312.6" fill="none" stroke="#ffffff" stroke-width="6"/></g>
<g data-route="M-N"><title>Downs–Vale: road</title><path d="M 942.0,312.6 L 1025.0,559.7" fill="none" stroke="#536975" stroke-width="10" stroke-linecap="round"/><path d="M 942.0,312.6 L 1025.0,559.7" fill="none" stroke="#ffffff" stroke-width="6"/></g>
<g data-route="J-K"><title>Eastfield–Marsh: road</title><path d="M 258.0,312.6 L 469.7,160.5" fill="none" stroke="#536975" stroke-width="10" stroke-linecap="round"/><path d="M 258.0,312.6 L 469.7,160.5" fill="none" stroke="#ffffff" stroke-width="6"/></g>
<g data-district="A"><polygon points="330.7,677.9 416.5,677.9 436.8,701.0 433.3,750.1 399.1,761.9 338.2,759.4 320.8,734.6 320.8,698.9" fill="#d5e7f5" stroke="#19354b" stroke-width="2"/><text class="name" x="378.8" y="701.9" text-anchor="middle">Harbormouth</text><text class="detail" x="378.8" y="716.9" text-anchor="middle">Urban · 3 votes</text>
<circle cx="365.8" cy="730.9" r="4.5" fill="white" stroke="#19354b" stroke-width="1.1"/>
<circle cx="378.8" cy="730.9" r="4.5" fill="white" stroke="#19354b" stroke-width="1.1"/>
<circle cx="391.8" cy="730.9" r="4.5" fill="white" stroke="#19354b" stroke-width="1.1"/>
<circle cx="365.8" cy="743.9" r="4.5" fill="white" stroke="#19354b" stroke-width="1.1"/>
<circle cx="378.8" cy="743.9" r="4.5" fill="white" stroke="#19354b" stroke-width="1.1"/>
<circle cx="391.8" cy="743.9" r="4.5" fill="white" stroke="#19354b" stroke-width="1.1"/>
</g>
<g data-district="B"><polygon points="281.9,519.6 367.7,519.6 388.0,542.7 384.5,591.8 350.3,603.6 289.4,601.1 272.0,576.3 272.0,540.6" fill="#d5e7f5" stroke="#19354b" stroke-width="2"/><text class="name" x="330.0" y="543.6" text-anchor="middle">Grand Market</text><text class="detail" x="330.0" y="558.6" text-anchor="middle">Urban · 3 votes</text>
<circle cx="317.0" cy="572.6" r="4.5" fill="white" stroke="#19354b" stroke-width="1.1"/>
<circle cx="330.0" cy="572.6" r="4.5" fill="white" stroke="#19354b" stroke-width="1.1"/>
<circle cx="343.0" cy="572.6" r="4.5" fill="white" stroke="#19354b" stroke-width="1.1"/>
<circle cx="317.0" cy="585.6" r="4.5" fill="white" stroke="#19354b" stroke-width="1.1"/>
<circle cx="330.0" cy="585.6" r="4.5" fill="white" stroke="#19354b" stroke-width="1.1"/>
<circle cx="343.0" cy="585.6" r="4.5" fill="white" stroke="#19354b" stroke-width="1.1"/>
</g>
<g data-district="C"><polygon points="334.7,362.7 420.5,362.7 440.8,385.8 437.3,434.9 403.1,446.7 342.2,444.2 324.8,419.4 324.8,383.7" fill="#d5e7f5" stroke="#19354b" stroke-width="2"/><text class="name" x="382.8" y="386.7" text-anchor="middle">Ironwood</text><text class="detail" x="382.8" y="401.7" text-anchor="middle">Urban · 3 votes</text>
<circle cx="369.8" cy="415.7" r="4.5" fill="white" stroke="#19354b" stroke-width="1.1"/>
<circle cx="382.8" cy="415.7" r="4.5" fill="white" stroke="#19354b" stroke-width="1.1"/>
<circle cx="395.8" cy="415.7" r="4.5" fill="white" stroke="#19354b" stroke-width="1.1"/>
<circle cx="369.8" cy="428.7" r="4.5" fill="white" stroke="#19354b" stroke-width="1.1"/>
<circle cx="382.8" cy="428.7" r="4.5" fill="white" stroke="#19354b" stroke-width="1.1"/>
<circle cx="395.8" cy="428.7" r="4.5" fill="white" stroke="#19354b" stroke-width="1.1"/>
</g>
<g data-district="X"><polygon points="464.1,265.0 558.8,265.0 581.2,288.6 577.4,339.0 539.6,351.0 472.4,348.4 453.2,323.1 453.2,286.5" fill="#e4dfea" stroke="#19354b" stroke-width="2"/><text class="name" x="517.2" y="290.0" text-anchor="middle">Bellweather</text><text class="detail" x="517.2" y="305.0" text-anchor="middle">Centre · separate</text>
<circle cx="504.20000000000005" cy="319.0" r="4.5" fill="white" stroke="#19354b" stroke-width="1.1"/>
<circle cx="517.2" cy="319.0" r="4.5" fill="white" stroke="#19354b" stroke-width="1.1"/>
<circle cx="530.2" cy="319.0" r="4.5" fill="white" stroke="#19354b" stroke-width="1.1"/>
</g>
<g data-district="D"><polygon points="634.7,266.0 720.5,266.0 740.8,289.1 737.3,338.2 703.1,350.0 642.2,347.5 624.8,322.7 624.8,287.0" fill="#dbeaca" stroke="#19354b" stroke-width="2"/><text class="name" x="682.8" y="290.0" text-anchor="middle">Northgate</text><text class="detail" x="682.8" y="305.0" text-anchor="middle">Mixed · 3 votes</text>
<circle cx="669.8" cy="319.0" r="4.5" fill="white" stroke="#19354b" stroke-width="1.1"/>
<circle cx="682.8" cy="319.0" r="4.5" fill="white" stroke="#19354b" stroke-width="1.1"/>
<circle cx="695.8" cy="319.0" r="4.5" fill="white" stroke="#19354b" stroke-width="1.1"/>
<circle cx="669.8" cy="332.0" r="4.5" fill="white" stroke="#19354b" stroke-width="1.1"/>
<circle cx="682.8" cy="332.0" r="4.5" fill="white" stroke="#19354b" stroke-width="1.1"/>
<circle cx="695.8" cy="332.0" r="4.5" fill="white" stroke="#19354b" stroke-width="1.1"/>
</g>
<g data-district="E"><polygon points="765.7,360.7 857.5,360.7 879.2,384.9 875.5,436.4 838.9,448.7 773.8,446.1 755.2,420.1 755.2,382.7" fill="#dbeaca" stroke="#19354b" stroke-width="2"/><text class="name" x="817.2" y="386.7" text-anchor="middle">Canal Ward</text><text class="detail" x="817.2" y="401.7" text-anchor="middle">Mixed · 2 votes</text>
<circle cx="810.7" cy="415.7" r="4.5" fill="white" stroke="#19354b" stroke-width="1.1"/>
<circle cx="823.7" cy="415.7" r="4.5" fill="white" stroke="#19354b" stroke-width="1.1"/>
<circle cx="810.7" cy="428.7" r="4.5" fill="white" stroke="#19354b" stroke-width="1.1"/>
<circle cx="823.7" cy="428.7" r="4.5" fill="white" stroke="#19354b" stroke-width="1.1"/>
</g>
<g data-district="F"><polygon points="818.5,517.6 910.3,517.6 932.0,541.8 928.3,593.3 891.7,605.6 826.6,603.0 808.0,577.0 808.0,539.6" fill="#dbeaca" stroke="#19354b" stroke-width="2"/><text class="name" x="870.0" y="543.6" text-anchor="middle">Crown Road</text><text class="detail" x="870.0" y="558.6" text-anchor="middle">Mixed · 2 votes</text>
<circle cx="863.5" cy="572.6" r="4.5" fill="white" stroke="#19354b" stroke-width="1.1"/>
<circle cx="876.5" cy="572.6" r="4.5" fill="white" stroke="#19354b" stroke-width="1.1"/>
<circle cx="863.5" cy="585.6" r="4.5" fill="white" stroke="#19354b" stroke-width="1.1"/>
<circle cx="876.5" cy="585.6" r="4.5" fill="white" stroke="#19354b" stroke-width="1.1"/>
</g>
<g data-district="G"><polygon points="764.8,673.9 865.4,673.9 889.2,699.2 885.1,753.0 845.0,765.9 773.6,763.1 753.2,736.0 753.2,696.9" fill="#dbeaca" stroke="#19354b" stroke-width="2"/><text class="name" x="821.2" y="701.9" text-anchor="middle">Orchard</text><text class="detail" x="821.2" y="716.9" text-anchor="middle">Mixed · 1 vote</text>
<circle cx="814.7" cy="730.9" r="4.5" fill="white" stroke="#19354b" stroke-width="1.1"/>
<circle cx="827.7" cy="730.9" r="4.5" fill="white" stroke="#19354b" stroke-width="1.1"/>
</g>
<g data-district="H"><polygon points="195.5,762.8 296.1,762.8 319.9,788.1 315.8,841.9 275.7,854.8 204.3,852.0 183.9,824.9 183.9,785.8" fill="#dbeaca" stroke="#19354b" stroke-width="2"/><text class="name" x="251.9" y="790.8" text-anchor="middle">Meadow</text><text class="detail" x="251.9" y="805.8" text-anchor="middle">Mixed · 1 vote</text>
<circle cx="245.4" cy="819.8" r="4.5" fill="white" stroke="#19354b" stroke-width="1.1"/>
<circle cx="258.4" cy="819.8" r="4.5" fill="white" stroke="#19354b" stroke-width="1.1"/>
</g>
<g data-district="I"><polygon points="123.5,515.7 215.3,515.7 237.0,539.9 233.3,591.4 196.7,603.7 131.6,601.1 113.0,575.1 113.0,537.7" fill="#f5e7ac" stroke="#19354b" stroke-width="2"/><text class="name" x="175.0" y="541.7" text-anchor="middle">Westfield</text><text class="detail" x="175.0" y="556.7" text-anchor="middle">Outlying · 2 votes</text>
<circle cx="168.5" cy="570.7" r="4.5" fill="white" stroke="#19354b" stroke-width="1.1"/>
<circle cx="181.5" cy="570.7" r="4.5" fill="white" stroke="#19354b" stroke-width="1.1"/>
<circle cx="168.5" cy="583.7" r="4.5" fill="white" stroke="#19354b" stroke-width="1.1"/>
<circle cx="181.5" cy="583.7" r="4.5" fill="white" stroke="#19354b" stroke-width="1.1"/>
</g>
<g data-district="J"><polygon points="206.5,268.6 298.3,268.6 320.0,292.8 316.3,344.3 279.7,356.6 214.6,354.0 196.0,328.0 196.0,290.6" fill="#f5e7ac" stroke="#19354b" stroke-width="2"/><text class="name" x="258.0" y="294.6" text-anchor="middle">Eastfield</text><text class="detail" x="258.0" y="309.6" text-anchor="middle">Outlying · 2 votes</text>
<circle cx="251.5" cy="323.6" r="4.5" fill="white" stroke="#19354b" stroke-width="1.1"/>
<circle cx="264.5" cy="323.6" r="4.5" fill="white" stroke="#19354b" stroke-width="1.1"/>
<circle cx="251.5" cy="336.6" r="4.5" fill="white" stroke="#19354b" stroke-width="1.1"/>
<circle cx="264.5" cy="336.6" r="4.5" fill="white" stroke="#19354b" stroke-width="1.1"/>
</g>
<g data-district="K"><polygon points="413.3,114.5 513.9,114.5 537.7,139.8 533.6,193.6 493.5,206.5 422.1,203.7 401.7,176.6 401.7,137.5" fill="#f5e7ac" stroke="#19354b" stroke-width="2"/><text class="name" x="469.7" y="142.5" text-anchor="middle">Marsh</text><text class="detail" x="469.7" y="157.5" text-anchor="middle">Outlying · 1 vote</text>
<circle cx="463.2" cy="171.5" r="4.5" fill="white" stroke="#19354b" stroke-width="1.1"/>
<circle cx="476.2" cy="171.5" r="4.5" fill="white" stroke="#19354b" stroke-width="1.1"/>
</g>
<g data-district="L"><polygon points="673.9,114.5 774.5,114.5 798.3,139.8 794.2,193.6 754.1,206.5 682.7,203.7 662.3,176.6 662.3,137.5" fill="#f5e7ac" stroke="#19354b" stroke-width="2"/><text class="name" x="730.3" y="142.5" text-anchor="middle">Heath</text><text class="detail" x="730.3" y="157.5" text-anchor="middle">Outlying · 1 vote</text>
<circle cx="723.8" cy="171.5" r="4.5" fill="white" stroke="#19354b" stroke-width="1.1"/>
<circle cx="736.8" cy="171.5" r="4.5" fill="white" stroke="#19354b" stroke-width="1.1"/>
</g>
<g data-district="M"><polygon points="885.6,266.6 986.2,266.6 1010.0,291.9 1005.9,345.7 965.8,358.6 894.4,355.8 874.0,328.7 874.0,289.6" fill="#f5e7ac" stroke="#19354b" stroke-width="2"/><text class="name" x="942.0" y="294.6" text-anchor="middle">Downs</text><text class="detail" x="942.0" y="309.6" text-anchor="middle">Outlying · 1 vote</text>
<circle cx="935.5" cy="323.6" r="4.5" fill="white" stroke="#19354b" stroke-width="1.1"/>
<circle cx="948.5" cy="323.6" r="4.5" fill="white" stroke="#19354b" stroke-width="1.1"/>
</g>
<g data-district="N"><polygon points="968.6,513.7 1069.2,513.7 1093.0,539.0 1088.9,592.8 1048.8,605.7 977.4,602.9 957.0,575.8 957.0,536.7" fill="#f5e7ac" stroke="#19354b" stroke-width="2"/><text class="name" x="1025.0" y="541.7" text-anchor="middle">Vale</text><text class="detail" x="1025.0" y="556.7" text-anchor="middle">Outlying · 1 vote</text>
<circle cx="1018.5" cy="570.7" r="4.5" fill="white" stroke="#19354b" stroke-width="1.1"/>
<circle cx="1031.5" cy="570.7" r="4.5" fill="white" stroke="#19354b" stroke-width="1.1"/>
</g>
<g data-district="O"><polygon points="891.7,762.8 992.3,762.8 1016.1,788.1 1012.0,841.9 971.9,854.8 900.5,852.0 880.1,824.9 880.1,785.8" fill="#f5e7ac" stroke="#19354b" stroke-width="2"/><text class="name" x="948.1" y="790.8" text-anchor="middle">Coast</text><text class="detail" x="948.1" y="805.8" text-anchor="middle">Outlying · 1 vote</text>
<circle cx="941.6" cy="819.8" r="4.5" fill="white" stroke="#19354b" stroke-width="1.1"/>
<circle cx="954.6" cy="819.8" r="4.5" fill="white" stroke="#19354b" stroke-width="1.1"/>
</g>
<text x="40" y="934" font-size="14">Only printed routes create adjacency. Every route joins its two endpoint districts for all effects.</text>
<text x="40" y="959" font-size="13">Nearby footprints are not adjacent. Double-railed spans mark bridges, gates, passes, or viaducts.</text>
<text x="40" y="984" font-size="13">Experimental concept · 26 connections · 2 dead-end districts: see study notes · District elections remain local</text>
</svg>
